<svg xmlns="http://www.w3.org/2000/svg" xmlns:xlink="http://www.w3.org/1999/xlink" version="1.1" width="256" height="256" viewBox="0 0 256 256" xml:space="preserve">
<g style="stroke: none; stroke-width: 0; stroke-dasharray: none; stroke-linecap: butt; stroke-linejoin: miter; stroke-miterlimit: 10; fill: none; fill-rule: nonzero; opacity: 1;" transform="translate(1.4065934065934016 1.4065934065934016) scale(2.81 2.81)">
	<path d="M 70.994 49.976 c -0.328 -6.173 -3.94 -12.258 -10.997 -18.538 c -0.024 -0.023 -0.046 -0.044 -0.072 -0.064 c -0.685 -0.608 -1.391 -1.217 -2.141 -1.829 c -3.493 -4.634 -2.695 -16.935 4.09 -28.022 c 0.289 -0.471 0.141 -1.086 -0.33 -1.375 c -0.473 -0.289 -1.087 -0.139 -1.375 0.331 c -5.758 9.409 -7.842 20.796 -5.423 27.502 c -7.366 1.79 -16.491 5.465 -17.776 15.836 c -9.17 -3.001 -7.564 -15.251 -5.71 -29.357 c 0.388 -2.952 0.789 -6.004 1.099 -9.047 c 0.033 -0.319 -0.09 -0.635 -0.33 -0.848 c -0.24 -0.213 -0.567 -0.299 -0.881 -0.229 C 28.956 4.82 27.5 4.19 26.869 3.439 c -0.481 -0.573 -0.568 -1.285 -0.249 -2.058 c 0.211 -0.511 -0.033 -1.095 -0.543 -1.306 c -0.511 -0.211 -1.095 0.033 -1.306 0.543 c -0.604 1.463 -0.397 2.96 0.567 4.107 c 1.058 1.259 2.857 1.888 4.896 1.754 c -0.284 2.594 -0.625 5.192 -0.958 7.717 c -1.935 14.72 -3.765 28.638 7.756 31.73 l 1.494 5.794 c -4.437 7.27 -8.738 24.428 -10.571 37.134 c -0.079 0.546 0.3 1.054 0.847 1.133 c 0.049 0.007 0.097 0.01 0.145 0.01 c 0.489 0 0.917 -0.359 0.988 -0.857 c 1.836 -12.721 6.143 -29.911 10.509 -36.713 c 0.009 -0.014 0.009 -0.031 0.017 -0.045 c 0.04 -0.069 0.063 -0.146 0.086 -0.225 c 0.014 -0.05 0.035 -0.096 0.041 -0.147 c 0.002 -0.014 0.01 -0.025 0.011 -0.039 c 1.248 -14.883 9.518 -17.884 18.377 -18.768 c 6.436 5.804 9.727 11.347 10.022 16.879 c 0.291 5.467 -2.308 10.884 -7.945 16.561 c -0.087 0.089 -0.158 0.192 -0.207 0.307 c -3.259 7.511 -7.139 14.539 -11.864 21.486 c -0.311 0.457 -0.191 1.079 0.265 1.39 c 0.172 0.117 0.368 0.173 0.562 0.173 c 0.32 0 0.635 -0.153 0.828 -0.438 c 4.583 -6.741 8.379 -13.561 11.595 -20.809 c 0.192 4.05 0.39 10.894 -0.084 16.468 c -0.116 1.059 -0.302 2.16 -0.602 3.573 c -0.114 0.54 0.23 1.07 0.771 1.186 C 62.385 89.993 62.455 90 62.523 90 c 0.462 0 0.878 -0.322 0.978 -0.793 c 0.31 -1.459 0.511 -2.657 0.635 -3.793 c 0.598 -7.026 0.157 -15.952 -0.033 -19.102 C 68.959 60.866 71.282 55.379 70.994 49.976 z M 39.344 46.887 l -0.481 -1.865 c 0.535 -7.753 5.87 -12.589 16.736 -15.181 c 0.209 0.359 0.428 0.706 0.674 1.021 c 0.047 0.059 0.099 0.113 0.157 0.16 c 0.169 0.138 0.327 0.275 0.493 0.412 C 49.286 32.496 41.864 35.654 39.344 46.887 z" style="stroke: none; stroke-width: 1; stroke-dasharray: none; stroke-linecap: butt; stroke-linejoin: miter; stroke-miterlimit: 10; fill: rgb(0,0,0); fill-rule: nonzero; opacity: 1;" transform=" matrix(1 0 0 1 0 0) " stroke-linecap="round"/>
	<path d="M 35.89 40.097 c -0.411 0 -0.796 -0.255 -0.942 -0.665 c -0.059 -0.164 -0.115 -0.329 -0.169 -0.495 c -0.173 -0.524 0.112 -1.09 0.637 -1.262 c 0.522 -0.174 1.09 0.113 1.262 0.637 c 0.05 0.151 0.101 0.3 0.154 0.449 c 0.186 0.52 -0.086 1.092 -0.606 1.277 C 36.115 40.078 36.001 40.097 35.89 40.097 z" style="stroke: none; stroke-width: 1; stroke-dasharray: none; stroke-linecap: butt; stroke-linejoin: miter; stroke-miterlimit: 10; fill: rgb(0,0,0); fill-rule: nonzero; opacity: 1;" transform=" matrix(1 0 0 1 0 0) " stroke-linecap="round"/>
	<path d="M 34.72 35.438 c -0.48 0 -0.904 -0.347 -0.985 -0.835 c -0.06 -0.361 -0.115 -0.726 -0.166 -1.094 c -0.075 -0.547 0.307 -1.052 0.854 -1.127 c 0.543 -0.077 1.052 0.307 1.127 0.854 c 0.048 0.349 0.1 0.695 0.157 1.037 c 0.091 0.545 -0.277 1.06 -0.822 1.151 C 34.83 35.433 34.774 35.438 34.72 35.438 z M 34.169 30.078 c -0.528 0 -0.97 -0.414 -0.998 -0.948 c -0.019 -0.362 -0.035 -0.726 -0.048 -1.092 c -0.02 -0.552 0.411 -1.016 0.963 -1.036 c 0.565 -0.02 1.016 0.411 1.036 0.963 c 0.013 0.356 0.028 0.71 0.046 1.062 c 0.029 0.551 -0.395 1.022 -0.947 1.05 C 34.205 30.078 34.187 30.078 34.169 30.078 z M 34.07 24.689 c -0.002 0 -0.004 0 -0.007 0 c -0.552 -0.004 -0.997 -0.455 -0.993 -1.007 l 0.011 -1.083 c 0.007 -0.552 0.464 -0.987 1.012 -0.988 c 0.552 0.007 0.995 0.46 0.988 1.012 l -0.011 1.073 C 35.066 24.246 34.62 24.689 34.07 24.689 z M 34.172 19.299 c -0.009 0 -0.018 0 -0.026 0 c -0.552 -0.014 -0.988 -0.473 -0.974 -1.025 l 0.028 -1.078 c 0.014 -0.553 0.457 -1.025 1.025 -0.974 c 0.552 0.014 0.988 0.473 0.974 1.025 l -0.028 1.078 C 35.158 18.869 34.713 19.299 34.172 19.299 z M 34.285 13.909 c -0.003 0 -0.007 0 -0.011 0 c -0.552 -0.006 -0.995 -0.458 -0.989 -1.011 l 0.008 -1.072 c 0.002 -0.551 0.45 -0.996 1 -0.996 c 0.001 0 0.002 0 0.004 0 c 0.552 0.002 0.999 0.452 0.996 1.004 l -0.008 1.086 C 35.279 13.468 34.833 13.909 34.285 13.909 z" style="stroke: none; stroke-width: 1; stroke-dasharray: none; stroke-linecap: butt; stroke-linejoin: miter; stroke-miterlimit: 10; fill: rgb(0,0,0); fill-rule: nonzero; opacity: 1;" transform=" matrix(1 0 0 1 0 0) " stroke-linecap="round"/>
	<path d="M 34.219 8.51 c -0.534 0 -0.977 -0.421 -0.999 -0.959 l -0.022 -0.491 c -0.028 -0.551 0.397 -1.021 0.949 -1.048 c 0.558 -0.032 1.021 0.397 1.048 0.949 l 0.023 0.508 c 0.023 0.552 -0.406 1.018 -0.958 1.04 C 34.246 8.51 34.232 8.51 34.219 8.51 z" style="stroke: none; stroke-width: 1; stroke-dasharray: none; stroke-linecap: butt; stroke-linejoin: miter; stroke-miterlimit: 10; fill: rgb(0,0,0); fill-rule: nonzero; opacity: 1;" transform=" matrix(1 0 0 1 0 0) " stroke-linecap="round"/>
	<path d="M 26.132 42.965 c -1.557 -2.075 -2.645 -5.256 -3.1 -7.99 l 0.361 0.349 c 0.397 0.383 1.029 0.373 1.414 -0.024 c 0.384 -0.397 0.373 -1.03 -0.024 -1.414 l -2.294 -2.217 c -0.017 -0.017 -0.042 -0.021 -0.06 -0.037 c -0.086 -0.072 -0.178 -0.133 -0.284 -0.173 c -0.05 -0.019 -0.103 -0.021 -0.156 -0.032 c -0.065 -0.013 -0.125 -0.039 -0.194 -0.039 c -0.023 0 -0.042 0.011 -0.064 0.013 c -0.019 0.001 -0.036 -0.008 -0.055 -0.006 c -0.039 0.005 -0.072 0.03 -0.11 0.039 c -0.084 0.02 -0.163 0.044 -0.237 0.084 c -0.049 0.026 -0.091 0.057 -0.135 0.091 c -0.068 0.052 -0.125 0.11 -0.178 0.178 c -0.02 0.025 -0.05 0.04 -0.067 0.067 l -1.813 2.873 c -0.295 0.467 -0.155 1.085 0.312 1.379 c 0.166 0.104 0.351 0.154 0.533 0.154 c 0.332 0 0.657 -0.165 0.847 -0.466 l 0.254 -0.403 c 0.505 2.968 1.675 6.406 3.452 8.773 c 0.196 0.262 0.497 0.4 0.801 0.4 c 0.208 0 0.419 -0.065 0.599 -0.2 C 26.374 44.033 26.463 43.406 26.132 42.965 z" style="stroke: none; stroke-width: 1; stroke-dasharray: none; stroke-linecap: butt; stroke-linejoin: miter; stroke-miterlimit: 10; fill: rgb(0,0,0); fill-rule: nonzero; opacity: 1;" transform=" matrix(1 0 0 1 0 0) " stroke-linecap="round"/>
</g>
</svg>